<?xml version="1.0" standalone="no"?>
<!DOCTYPE svg PUBLIC "-//W3C//DTD SVG 20010904//EN"
 "http://www.w3.org/TR/2001/REC-SVG-20010904/DTD/svg10.dtd">
<svg version="1.0" xmlns="http://www.w3.org/2000/svg"
 width="260.000000pt" height="260.000000pt" viewBox="0 0 260.000000 260.000000"
 preserveAspectRatio="xMidYMid meet">
<metadata>
Created by potrace 1.14, written by Peter Selinger 2001-2017
</metadata>
<g transform="translate(0.000000,260.000000) scale(0.100000,-0.100000)"
fill="#000000" stroke="none">
<path d="M1278 2184 c-2 -1 -30 -4 -63 -7 -193 -15 -419 -133 -547 -286 -89
-107 -130 -178 -171 -301 -107 -318 -26 -676 207 -904 97 -96 117 -110 241
-170 128 -62 205 -80 350 -80 132 -1 181 6 270 36 266 91 447 276 554 563 44
118 49 349 12 494 -54 206 -185 395 -354 510 -95 65 -245 122 -355 136 -52 7
-141 13 -144 9z m132 -238 c70 -12 84 -16 146 -45 235 -110 374 -322 377 -576
2 -121 -4 -161 -37 -250 -66 -174 -209 -317 -378 -379 -38 -13 -68 -22 -68
-20 0 2 -12 -1 -26 -7 -30 -11 -158 -13 -219 -4 -115 18 -239 82 -333 173
-136 131 -204 301 -197 492 3 100 17 161 57 249 117 263 397 415 678 367z"/>
<path d="M1248 1919 c-95 -10 -163 -32 -235 -76 -196 -120 -305 -309 -306
-528 0 -113 14 -178 65 -285 70 -147 218 -273 374 -316 143 -40 305 -21 439
49 70 37 202 164 230 222 11 22 23 42 26 45 11 9 48 134 57 190 35 235 -74
477 -275 606 -109 71 -250 106 -375 93z m185 -48 c137 -32 266 -125 340 -244
69 -111 88 -176 92 -311 10 -337 -258 -602 -593 -584 -96 5 -176 30 -257 79
-54 32 -145 113 -145 127 0 5 -8 16 -17 25 -26 23 -67 108 -94 192 -14 44 -18
218 -7 277 18 89 80 206 149 279 135 143 341 205 532 160z"/>
<path d="M1043 1730 c-18 -5 -19 -22 -19 -405 l1 -400 93 -1 c50 -1 92 2 93 5
1 3 2 185 3 404 1 346 -1 397 -14 398 -47 4 -141 3 -157 -1z"/>
<path d="M1248 1729 c-9 -6 -13 -36 -14 -103 l0 -95 42 6 c73 10 125 -4 171
-45 92 -82 101 -216 21 -312 -41 -50 -139 -76 -209 -57 l-26 7 1 -102 c1 -112
0 -111 76 -108 19 1 42 2 50 2 60 0 166 52 228 112 215 207 140 571 -141 678
-52 20 -177 30 -199 17z"/>
<path d="M286 2045 c14 -66 15 -66 131 -63 l106 3 14 39 c7 22 11 42 7 45 -3
3 -63 6 -135 6 l-130 1 7 -31z"/>
<path d="M170 1943 c-42 -15 -87 -65 -100 -113 -4 -19 -8 -262 -8 -539 1 -481
2 -506 20 -541 11 -20 38 -49 61 -63 l41 -27 242 0 243 0 -31 33 c-79 84 -162
240 -199 376 -28 99 -34 314 -13 416 33 163 112 325 212 435 12 14 22 27 22
30 0 11 -455 5 -490 -7z"/>
<path d="M1950 1953 c0 -2 25 -35 56 -75 31 -40 59 -80 62 -88 3 -8 11 -22 18
-30 7 -8 13 -18 14 -22 0 -4 10 -29 21 -55 33 -75 59 -163 69 -228 13 -90 5
-290 -14 -365 -20 -78 -46 -150 -59 -167 -5 -7 -6 -13 -1 -13 5 0 5 -4 -1 -8
-5 -4 -21 -27 -34 -52 -23 -44 -92 -142 -118 -168 -7 -7 -13 -16 -13 -20 0 -4
109 -5 243 -2 238 5 244 6 279 30 74 50 72 35 74 600 1 279 -2 521 -7 541 -11
43 -63 103 -99 114 -22 7 -490 14 -490 8z"/>
</g>
</svg>
